{"title":"Inception.2010.TS.V2.XVID.FEEL-FREE","uid":5731327,"size":1432750577,"categoryP":"video","categoryS":"movies","magnet":"?xt=urn:btih:eb8202e92621cbec7a55ab1681682b4e02da777e&amp;dn=Inception.2010.TS.V2.XVID.FEEL-FREE&amp;tr=udp%3A%2F%2Ftracker.openbittorrent.com%3A80&amp;tr=udp%3A%2F%2Fopen.demonii.com%3A1337&amp;tr=udp%3A%2F%2Ftracker.coppersurfer.tk%3A6969&amp;tr=udp%3A%2F%2Fexodus.desync.com%3A6969","seeders":0,"leechers":1,"uploader":"hiest","files":14,"time":1280660308,"description":"Genre:Drama | Mystery | Sci-Fi | Thriller\nLanguage:English\nIMDb:http://www.imdb.com/title/tt1375666/\nSource video:ELEKTRI4KA.Thanks\nSource audio:V2 Prism/MGExiled.Thanks\nSample:Yes\nSubtitles: ROMANA\n...........................................\nGeneral\nComplete name : Inception.2010.TS.V2.XVID.FEEL-FREE\nFormat : AVI\nFormat/Info : Audio Video Interleave\nFormat profile : OpenDML\nFile size : 1.31 GiB\nDuration : 2h 19mn\n...........................................\nVideo\nFormat : xvid\nCodec ID : xvid\nDuration : 2h 19mn\nDuration : 6h 12mn\nBit rate : 448 Kbps\nWidth : 720 pixels\nHeight : 304 pixels\nDisplay aspect ratio : 2.35:1\nFrame rate : 25.000 fps\nResolution : 24 bits\nBits/(Pixel*Frame) : 0.082\nStream size : 1.17 GiB (89%)\n............................................\nAudio\nID : 1\nFormat : MPEG Audio\nFormat version : Version 1\nFormat profile : Layer 3\nFormat settings, Mode : Joint stereo / MS Stereo\nCodec ID : 55\nCodec ID/Hint : MP3\nDuration : 2h 19mn\nBit rate mode : Constant\nBit rate : 128 Kbps\nChannel(s) : 2 channels\nSampling rate : 48.0 KHz\nResolution : 16 bits\nStream size : 128 MiB (10%)\nAlignment : Aligned on interleaves\nInterleave, duration : 24 ms (0.60 video frame)\nInterleave, preload duration : 24 ms\n............................................\nPlot:\nIn a world where technology exists to enter the human mind through dream invasion, a highly skilled thief is given a final chance at redemption which involves executing his toughest job till date, Inception\n............................................\n\n\nhttp*://i31*.*tinypic.*com/2d2io2t.jpg","torrent":{"xt":"urn:btih:eb8202e92621cbec7a55ab1681682b4e02da777e","amp;dn":"Inception.2010.TS.V2.XVID.FEEL-FREE","amp;tr":["udp%3A%2F%2Ftracker.openbittorrent.com%3A80","udp%3A%2F%2Fopen.demonii.com%3A1337","udp%3A%2F%2Ftracker.coppersurfer.tk%3A6969","udp%3A%2F%2Fexodus.desync.com%3A6969"],"infoHash":"eb8202e92621cbec7a55ab1681682b4e02da777e","infoHashBuffer":{"type":"Buffer","data":[235,130,2,233,38,33,203,236,122,85,171,22,129,104,43,78,2,218,119,126]},"announce":[],"urlList":[]}}